<svg xmlns="http://www.w3.org/2000/svg" width="20" height="20" viewBox="0 0 20 20">
  <defs>
    <style>
      .cls-1 {
        fill: #222;
        fill-rule: evenodd;
      }
    </style>
  </defs>
  <path class="cls-1" d="M10,17a7,7,0,1,1,7-7A7,7,0,0,1,10,17Zm4.842-4.973a6.421,6.421,0,0,0-1.78-.277,6.624,6.624,0,0,0-.776.058,13.627,13.627,0,0,1,.323,2.722A5.247,5.247,0,0,0,14.842,12.027Zm-3.985,3.136c0-.118.018-0.232,0.018-0.351a11.755,11.755,0,0,0-.293-2.559,6.614,6.614,0,0,0-2.963,2.4,5.194,5.194,0,0,0,2.381.6A5.275,5.275,0,0,0,10.857,15.163ZM6.229,13.642a8.332,8.332,0,0,1,3.851-3.071c-0.137-.353-0.291-0.7-0.46-1.033A8.244,8.244,0,0,1,6.937,10a8.18,8.18,0,0,1-2.158-.292C4.774,9.805,4.75,9.9,4.75,10A5.225,5.225,0,0,0,6.229,13.642ZM6.745,5.909A5.242,5.242,0,0,0,5.158,7.972a6.42,6.42,0,0,0,1.78.277A6.559,6.559,0,0,0,8.687,8,12.073,12.073,0,0,0,6.745,5.909Zm1.644-.882a13.9,13.9,0,0,1,1.938,2.261,6.654,6.654,0,0,0,2.042-1.95A5.19,5.19,0,0,0,10,4.749,5.191,5.191,0,0,0,8.389,5.028Zm5.4,1.347a8.363,8.363,0,0,1-2.567,2.43,13.453,13.453,0,0,1,.558,1.3A8.334,8.334,0,0,1,13.062,10a8.183,8.183,0,0,1,2.158.293c0.006-.1.03-0.192,0.03-0.292A5.223,5.223,0,0,0,13.785,6.375Z"/>
</svg>
