<svg xmlns="http://www.w3.org/2000/svg" width="20" height="20" viewBox="0 0 20 20">
  <defs>
    <style>
      .odcls-1 {
        fill: #222;
        fill-rule: evenodd;
      }
    </style>
  </defs>
  <path class="odcls-1" d="M10.5,10.99a3.5,3.5,0,1,1,3.518-3.5A3.508,3.508,0,0,1,10.5,10.99Zm0.008-5.034a1.519,1.519,0,1,0,1.535,1.518A1.528,1.528,0,0,0,10.505,5.956ZM7.491,11.079a6.074,6.074,0,0,1,1.119.542,4.382,4.382,0,0,0,1.887.395,5.828,5.828,0,0,0,1.964-.357,6,6,0,0,1,1.116-.565c0.221,0.008.583,0.373,0.521,1.318-0.035.538-1.018,0.761-1.363,0.968a2.284,2.284,0,0,1-.726.246s0.847,0.906,1.063,1.129a2.671,2.671,0,0,1,.948,1.278,1.342,1.342,0,0,1-1,1,4.485,4.485,0,0,1-1.4-1.12c-0.583-.557-1.115-1.069-1.115-1.069s-0.547.486-1.116,1.048a4.607,4.607,0,0,1-1.368,1.141,1.439,1.439,0,0,1-1.061-1.16A6.312,6.312,0,0,1,8.2,14.391,8.057,8.057,0,0,1,9,13.634a1.909,1.909,0,0,1-.638-0.208c-0.481-.267-1.511-0.547-1.484-1.043C6.9,11.87,7.035,11.079,7.491,11.079Z"/>
</svg>
