<svg xmlns="http://www.w3.org/2000/svg" width="20" height="20" viewBox="0 0 20 20">
  <defs>
    <style>
      .cls-1 {
        fill: #222;
        fill-rule: evenodd;
      }
    </style>
  </defs>
  <path class="cls-1" d="M17,12.8a4.175,4.175,0,0,1-6.824,3.25c-0.06,0-.116.018-0.176,0.018A6.07,6.07,0,0,1,3.93,10c0-.061.016-0.117,0.018-0.176A4.175,4.175,0,0,1,9.823,3.947c0.06,0,.116-0.018.176-0.018A6.071,6.071,0,0,1,16.07,10c0,0.06-.016.116-0.018,0.176A4.156,4.156,0,0,1,17,12.8ZM12.457,10.47a1.606,1.606,0,0,0-.5-0.588,3.035,3.035,0,0,0-.772-0.392,9.825,9.825,0,0,0-1.01-.294c-0.3-.076-0.509-0.135-0.637-0.174a1.952,1.952,0,0,1-.377-0.163,0.889,0.889,0,0,1-.29-0.246,0.55,0.55,0,0,1-.1-0.333,0.652,0.652,0,0,1,.307-0.537,1.359,1.359,0,0,1,.82-0.228,1.223,1.223,0,0,1,.795.208,1.722,1.722,0,0,1,.425.586,1.616,1.616,0,0,0,.263.391,0.5,0.5,0,0,0,.363.122,0.553,0.553,0,0,0,.436-0.2,0.678,0.678,0,0,0,.175-0.454,1.275,1.275,0,0,0-.137-0.557,1.722,1.722,0,0,0-.432-0.542,2.242,2.242,0,0,0-.741-0.412A3.228,3.228,0,0,0,9.984,6.5a3.455,3.455,0,0,0-1.328.233,1.89,1.89,0,0,0-.868.671,1.727,1.727,0,0,0-.3,1,1.663,1.663,0,0,0,.285.99,1.952,1.952,0,0,0,.767.625,6.207,6.207,0,0,0,1.192.4,8.163,8.163,0,0,1,.844.233,1.25,1.25,0,0,1,.508.313,0.722,0.722,0,0,1,.192.525,0.824,0.824,0,0,1-.36.683,1.521,1.521,0,0,1-.95.277,1.454,1.454,0,0,1-.686-0.138,1.077,1.077,0,0,1-.4-0.348,2.7,2.7,0,0,1-.269-0.531,1.1,1.1,0,0,0-.254-0.417,0.523,0.523,0,0,0-.372-0.144,0.592,0.592,0,0,0-.445.183,0.626,0.626,0,0,0-.175.442,1.682,1.682,0,0,0,.285.892,2.172,2.172,0,0,0,.737.73A3.116,3.116,0,0,0,10,13.5a3.334,3.334,0,0,0,1.414-.277,2.072,2.072,0,0,0,.91-0.769,2.032,2.032,0,0,0,.311-1.111A1.921,1.921,0,0,0,12.457,10.47Z"/>
</svg>
