<svg xmlns="http://www.w3.org/2000/svg" width="20" height="20" viewBox="0 0 20 20">
  <defs>
    <style>
      .cls-1 {
        fill: #222;
        fill-rule: evenodd;
      }
    </style>
  </defs>
  <path class="cls-1" d="M10.294,8.784s0.2-2.739,2.175-2.763c1.61-.02,1.916.686,1.916,0.686A3.662,3.662,0,0,0,15.7,6a2.046,2.046,0,0,1-.539,1.234A1.365,1.365,0,0,0,16,6.942a1.6,1.6,0,0,1-.879,1.017A9.089,9.089,0,0,1,13.769,12.8c-1.291,2.11-4.055,2.171-5.49,2.188a7.855,7.855,0,0,1-3.272-.922A6.935,6.935,0,0,0,8.159,13.4,15.331,15.331,0,0,1,6,11.68,2.219,2.219,0,0,0,6.782,11.6,11.26,11.26,0,0,1,5.006,9.233a2.933,2.933,0,0,0,.819.041S4.557,7.281,5.156,5.989A8.159,8.159,0,0,0,10.294,8.784Z"/>
</svg>
