<svg xmlns="http://www.w3.org/2000/svg" width="17" height="16" viewBox="0 0 17 16">
  <defs>
    <style>
      .cls-1 {
        fill: #222;
        fill-rule: evenodd;
      }
    </style>
  </defs>
  <path data-name="Ellipse 2 copy" class="cls-1" d="M1500,66.344l-0.63.656h-10.62l-0.75-.781L1486.85,59H1485a1,1,0,1,1,0-2h2c0.26,0,.52.006,0.52,0.006a1.048,1.048,0,0,1,1.15.763L1489.16,60h11.34l0.5,0.5V62ZM1489.37,62l0.41,3h8.5l0.72-3h-9.63Zm1.13,6a2.5,2.5,0,1,1-2.5,2.5A2.5,2.5,0,0,1,1490.5,68Zm-0.5,3h1V70h-1v1Zm7.5-3a2.5,2.5,0,1,1-2.5,2.5A2.5,2.5,0,0,1,1497.5,68Zm-0.5,3h1V70h-1v1Z" transform="translate(-1484 -57)"/>
</svg>
