<svg id="display.svg" xmlns="http://www.w3.org/2000/svg" width="70" height="30" viewBox="0 0 70 30">
  <defs>
    <style>
      .cls-1 {
        fill: #fff;
      }

      .cls-1, .cls-2 {
        fill-rule: evenodd;
      }

      .cls-2 {
        fill: #222;
      }
    </style>
  </defs>
  <path id="block" class="cls-1" d="M0.75,5h1.5A0.75,0.75,0,0,1,3,5.75v1.5A0.75,0.75,0,0,1,2.25,8H0.75A0.75,0.75,0,0,1,0,7.25V5.75A0.75,0.75,0,0,1,.75,5Zm0,5h1.5a0.75,0.75,0,0,1,.75.75v1.5a0.75,0.75,0,0,1-.75.75H0.75A0.75,0.75,0,0,1,0,12.25v-1.5A0.75,0.75,0,0,1,.75,10Zm0-10h1.5A0.75,0.75,0,0,1,3,.75v1.5A0.75,0.75,0,0,1,2.25,3H0.75A0.75,0.75,0,0,1,0,2.25V0.75A0.75,0.75,0,0,1,.75,0Zm5,5h1.5A0.75,0.75,0,0,1,8,5.75v1.5A0.75,0.75,0,0,1,7.25,8H5.75A0.75,0.75,0,0,1,5,7.25V5.75A0.75,0.75,0,0,1,5.75,5Zm0,5h1.5a0.75,0.75,0,0,1,.75.75v1.5a0.75,0.75,0,0,1-.75.75H5.75A0.75,0.75,0,0,1,5,12.25v-1.5A0.75,0.75,0,0,1,5.75,10Zm0-10h1.5A0.75,0.75,0,0,1,8,.75v1.5A0.75,0.75,0,0,1,7.25,3H5.75A0.75,0.75,0,0,1,5,2.25V0.75A0.75,0.75,0,0,1,5.75,0Zm5,5h1.5a0.75,0.75,0,0,1,.75.75v1.5a0.75,0.75,0,0,1-.75.75h-1.5A0.75,0.75,0,0,1,10,7.25V5.75A0.75,0.75,0,0,1,10.75,5Zm0,5h1.5a0.75,0.75,0,0,1,.75.75v1.5a0.75,0.75,0,0,1-.75.75h-1.5A0.75,0.75,0,0,1,10,12.25v-1.5A0.75,0.75,0,0,1,10.75,10Zm0-10h1.5A0.75,0.75,0,0,1,13,.75v1.5a0.75,0.75,0,0,1-.75.75h-1.5A0.75,0.75,0,0,1,10,2.25V0.75A0.75,0.75,0,0,1,10.75,0Z"/>
  <path id="table" class="cls-1" d="M57.5,0h12a0.5,0.5,0,0,1,0,1h-12A0.5,0.5,0,0,1,57.5,0Zm0,3h12a0.5,0.5,0,0,1,0,1h-12A0.5,0.5,0,0,1,57.5,3Zm0,3h12a0.5,0.5,0,0,1,0,1h-12A0.5,0.5,0,0,1,57.5,6Zm0,3h12a0.5,0.5,0,0,1,0,1h-12A0.5,0.5,0,0,1,57.5,9Zm0,3h12a0.5,0.5,0,0,1,0,1h-12A0.5,0.5,0,0,1,57.5,12Z"/>
  <path id="list" class="cls-1" d="M29.5,5h2a0.5,0.5,0,0,1,.5.5v2a0.5,0.5,0,0,1-.5.5h-2A0.5,0.5,0,0,1,29,7.5v-2A0.5,0.5,0,0,1,29.5,5Zm0,5h2a0.5,0.5,0,0,1,.5.5v2a0.5,0.5,0,0,1-.5.5h-2a0.5,0.5,0,0,1-.5-0.5v-2A0.5,0.5,0,0,1,29.5,10Zm0-10h2a0.5,0.5,0,0,1,.5.5v2a0.5,0.5,0,0,1-.5.5h-2A0.5,0.5,0,0,1,29,2.5v-2A0.5,0.5,0,0,1,29.5,0Zm5,5h7a0.5,0.5,0,0,1,.5.5v2a0.5,0.5,0,0,1-.5.5h-7A0.5,0.5,0,0,1,34,7.5v-2A0.5,0.5,0,0,1,34.5,5Zm0,5h7a0.5,0.5,0,0,1,.5.5v2a0.5,0.5,0,0,1-.5.5h-7a0.5,0.5,0,0,1-.5-0.5v-2A0.5,0.5,0,0,1,34.5,10Zm0-10h7a0.5,0.5,0,0,1,.5.5v2a0.5,0.5,0,0,1-.5.5h-7A0.5,0.5,0,0,1,34,2.5v-2A0.5,0.5,0,0,1,34.5,0Z"/>
  <path id="block_black" class="cls-2" d="M0.75,22h1.5a0.75,0.75,0,0,1,.75.75v1.5a0.75,0.75,0,0,1-.75.75H0.75A0.75,0.75,0,0,1,0,24.25v-1.5A0.75,0.75,0,0,1,.75,22Zm0,5h1.5a0.75,0.75,0,0,1,.75.75v1.5a0.75,0.75,0,0,1-.75.75H0.75A0.75,0.75,0,0,1,0,29.25v-1.5A0.75,0.75,0,0,1,.75,27Zm0-10h1.5a0.75,0.75,0,0,1,.75.75v1.5a0.75,0.75,0,0,1-.75.75H0.75A0.75,0.75,0,0,1,0,19.25v-1.5A0.75,0.75,0,0,1,.75,17Zm5,5h1.5a0.75,0.75,0,0,1,.75.75v1.5a0.75,0.75,0,0,1-.75.75H5.75A0.75,0.75,0,0,1,5,24.25v-1.5A0.75,0.75,0,0,1,5.75,22Zm0,5h1.5a0.75,0.75,0,0,1,.75.75v1.5a0.75,0.75,0,0,1-.75.75H5.75A0.75,0.75,0,0,1,5,29.25v-1.5A0.75,0.75,0,0,1,5.75,27Zm0-10h1.5a0.75,0.75,0,0,1,.75.75v1.5a0.75,0.75,0,0,1-.75.75H5.75A0.75,0.75,0,0,1,5,19.25v-1.5A0.75,0.75,0,0,1,5.75,17Zm5,5h1.5a0.75,0.75,0,0,1,.75.75v1.5a0.75,0.75,0,0,1-.75.75h-1.5A0.75,0.75,0,0,1,10,24.25v-1.5A0.75,0.75,0,0,1,10.75,22Zm0,5h1.5a0.75,0.75,0,0,1,.75.75v1.5a0.75,0.75,0,0,1-.75.75h-1.5A0.75,0.75,0,0,1,10,29.25v-1.5A0.75,0.75,0,0,1,10.75,27Zm0-10h1.5a0.75,0.75,0,0,1,.75.75v1.5a0.75,0.75,0,0,1-.75.75h-1.5A0.75,0.75,0,0,1,10,19.25v-1.5A0.75,0.75,0,0,1,10.75,17Z"/>
  <path id="table_black" class="cls-2" d="M57.5,17h12a0.5,0.5,0,0,1,0,1h-12A0.5,0.5,0,0,1,57.5,17Zm0,3h12a0.5,0.5,0,1,1,0,1h-12A0.5,0.5,0,1,1,57.5,20Zm0,3h12a0.5,0.5,0,1,1,0,1h-12A0.5,0.5,0,1,1,57.5,23Zm0,3h12a0.5,0.5,0,1,1,0,1h-12A0.5,0.5,0,1,1,57.5,26Zm0,3h12a0.5,0.5,0,0,1,0,1h-12A0.5,0.5,0,0,1,57.5,29Z"/>
  <path id="list_black" class="cls-2" d="M29.5,22h2a0.5,0.5,0,0,1,.5.5v2a0.5,0.5,0,0,1-.5.5h-2a0.5,0.5,0,0,1-.5-0.5v-2A0.5,0.5,0,0,1,29.5,22Zm0,5h2a0.5,0.5,0,0,1,.5.5v2a0.5,0.5,0,0,1-.5.5h-2a0.5,0.5,0,0,1-.5-0.5v-2A0.5,0.5,0,0,1,29.5,27Zm0-10h2a0.5,0.5,0,0,1,.5.5v2a0.5,0.5,0,0,1-.5.5h-2a0.5,0.5,0,0,1-.5-0.5v-2A0.5,0.5,0,0,1,29.5,17Zm5,5h7a0.5,0.5,0,0,1,.5.5v2a0.5,0.5,0,0,1-.5.5h-7a0.5,0.5,0,0,1-.5-0.5v-2A0.5,0.5,0,0,1,34.5,22Zm0,5h7a0.5,0.5,0,0,1,.5.5v2a0.5,0.5,0,0,1-.5.5h-7a0.5,0.5,0,0,1-.5-0.5v-2A0.5,0.5,0,0,1,34.5,27Zm0-10h7a0.5,0.5,0,0,1,.5.5v2a0.5,0.5,0,0,1-.5.5h-7a0.5,0.5,0,0,1-.5-0.5v-2A0.5,0.5,0,0,1,34.5,17Z"/>
</svg>
