<svg xmlns="http://www.w3.org/2000/svg" width="13" height="16" viewBox="0 0 13 16">
  <defs>
    <style>
      .cls-1 {
        fill: #222;
        fill-rule: evenodd;
      }
    </style>
  </defs>
  <path id="marker.svg" class="cls-1" d="M6.517,1A6.517,6.517,0,0,0,0,7.517,6.414,6.414,0,0,0,1.237,11.3c0.014,0.026.016,0.054,0.032,0.079l4.345,5.2a1.085,1.085,0,0,0,1.807,0l4.345-5.2c0.016-.024.018-0.053,0.032-0.079a6.414,6.414,0,0,0,1.237-3.783A6.517,6.517,0,0,0,6.517,1Zm3.368,9.509-3.369,4.04-3.369-4.04A6.824,6.824,0,0,1,2.025,7.48a4.492,4.492,0,1,1,8.983,0A5.606,5.606,0,0,1,9.886,10.509ZM6.516,6.016a1.5,1.5,0,1,0,1.5,1.5A1.5,1.5,0,0,0,6.516,6.016Z" transform="translate(0 -1)"/>
</svg>
