<svg id="sale_mask.svg" xmlns="http://www.w3.org/2000/svg" width="20" height="16" viewBox="0 0 20 16">
  <defs>
    <style>
      .cls-1 {
        fill: #fff;
        fill-rule: evenodd;
      }
    </style>
  </defs>
  <path id="Shape" class="cls-1" d="M0,0H20V16H0V0ZM19.784,7.013a2.358,2.358,0,0,1,0,1.921l-2.845,5.535A2,2,0,0,1,15,16H2a2,2,0,0,1-2-2V2A2,2,0,0,1,2,0H15a1.989,1.989,0,0,1,1.574.78V0.769L16.589,0.8a1.98,1.98,0,0,1,.309.6ZM4.891,11.907l6.7-8.568a0.816,0.816,0,1,1,1.413.816L6.3,12.723A0.816,0.816,0,1,1,4.891,11.907ZM5.5,3A2.5,2.5,0,1,1,3,5.5,2.5,2.5,0,0,1,5.5,3Zm0,1.563a0.937,0.937,0,1,1-.937.937A0.937,0.937,0,0,1,5.5,4.562ZM12.5,8A2.5,2.5,0,1,1,10,10.5,2.5,2.5,0,0,1,12.5,8Zm0,1.563a0.938,0.938,0,1,1-.937.937A0.938,0.938,0,0,1,12.5,9.562Z"/>
</svg>
