<svg id="sale.svg" xmlns="http://www.w3.org/2000/svg" width="22" height="18" viewBox="0 0 22 18">
  <defs>
    <style>
      .cls-1 {
        fill: #fff;
        fill-rule: evenodd;
      }
    </style>
  </defs>
  <path id="Shape" class="cls-1" d="M21.762,7.877a2.765,2.765,0,0,1,0,2.185l-2.935,5.905A2.99,2.99,0,0,1,16,18H3a3,3,0,0,1-3-3V3A3,3,0,0,1,3,0H16a2.989,2.989,0,0,1,2.654,1.63v0L18.676,1.67c0.034,0.068.072,0.132,0.1,0.2Zm-1.946,1.94-2.728,5.463a0.737,0.737,0,0,1-.211.267,0.982,0.982,0,0,1-.815.453H3a1,1,0,0,1-1-1V3A1,1,0,0,1,3,2H16.063a0.982,0.982,0,0,1,.772.389,0.645,0.645,0,0,1,.253.283l2.728,5.463A2.119,2.119,0,0,1,19.816,9.817ZM5.891,12.907l6.7-8.568a0.816,0.816,0,1,1,1.413.816L7.3,13.723A0.816,0.816,0,1,1,5.891,12.907ZM6.5,4A2.5,2.5,0,1,1,4,6.5,2.5,2.5,0,0,1,6.5,4Zm0,1.563a0.937,0.937,0,1,1-.937.937A0.937,0.937,0,0,1,6.5,5.562ZM13.5,9A2.5,2.5,0,1,1,11,11.5,2.5,2.5,0,0,1,13.5,9Zm0,1.563a0.938,0.938,0,1,1-.937.937A0.938,0.938,0,0,1,13.5,10.562Z"/>
</svg>
