<svg xmlns="http://www.w3.org/2000/svg" width="21" height="21" viewBox="0 0 21 21">
  <defs>
    <style>
      .cls-1 {
        fill: #fff;
        fill-rule: evenodd;
      }
    </style>
  </defs>
  <path id="show_more.svg" class="cls-1" d="M0,0H21V21H0V0ZM18,10H14a1,1,0,0,1-1-1V8.969a1,1,0,0,1,1-1h1.511A5.577,5.577,0,0,0,10.5,4.812a5.688,5.688,0,0,0,0,11.375,5.6,5.6,0,0,0,5.012-3.156h1.952A7.39,7.39,0,0,1,3.094,10.5,7.454,7.454,0,0,1,10.5,3,7.333,7.333,0,0,1,17,7V4.937a1,1,0,0,1,1-1h0.033A0.967,0.967,0,0,1,19,4.9V10H18Z"/>
</svg>
