<svg xmlns="http://www.w3.org/2000/svg" width="22.969" height="21" viewBox="0 0 22.969 21">
  <defs>
    <style>
      .whcls-1 {
        fill: #222;
        fill-rule: evenodd;
      }
    </style>
  </defs>
  <path class="whcls-1" d="M21.028,10.68L11.721,20H11.339L2.081,10.79A6.19,6.19,0,0,1,6.178,0a6.118,6.118,0,0,1,5.383,3.259A6.081,6.081,0,0,1,23.032,6.147,6.142,6.142,0,0,1,21.028,10.68ZM19.861,9.172h0l-8.176,8.163H11.369L3.278,9.29l0.01-.009A4.276,4.276,0,0,1,6.277,1.986,4.2,4.2,0,0,1,9.632,3.676l0.012-.01,0.064,0.1c0.077,0.107.142,0.22,0.208,0.334l1.692,2.716,1.479-2.462a4.23,4.23,0,0,1,.39-0.65l0.036-.06L13.52,3.653a4.173,4.173,0,0,1,3.326-1.672A4.243,4.243,0,0,1,19.861,9.172ZM22,20h1v1H22V20Zm0,0h1v1H22V20Z" transform="translate(-0.031)"/>
</svg>
