<svg xmlns="http://www.w3.org/2000/svg" width="18" height="15.906" viewBox="0 0 18 15.906">
  <defs>
    <style>
      .whcls-1 {
        fill: #fff;
        fill-rule: evenodd;
      }
    </style>
  </defs>
  <path class="whcls-1" d="M16.2,8.884L9.135,15.912h-0.3L1.263,8.468l0.01-.005a5.127,5.127,0,0,1-1.3-3.421A4.931,4.931,0,0,1,4.792.007,4.776,4.776,0,0,1,9.01,2.653,4.745,4.745,0,0,1,13.212,0,4.9,4.9,0,0,1,18,5,5.054,5.054,0,0,1,16.2,8.884Zm-1.277-1.6L9.1,13.208H8.855L2.744,7,2.762,6.98A2.989,2.989,0,1,1,7.383,3.2l0.008-.007L7.428,3.251a2.99,2.99,0,0,1,.216.36L9.036,5.934l1.274-2.239a2.992,2.992,0,0,1,.233-0.41h0A2.993,2.993,0,1,1,14.919,7.288Z"/>
</svg>
