<svg xmlns="http://www.w3.org/2000/svg" width="20" height="20" viewBox="0 0 20 20">
  <defs>
    <style>
      .cls-1 {
        fill: #222;
        fill-rule: evenodd;
      }
    </style>
  </defs>
  <path class="cls-1" d="M12.988,5.981L13.3,4a15.921,15.921,0,0,0-2.4.019,2.25,2.25,0,0,0-1.427.784A2.462,2.462,0,0,0,9,6.4C9,7.091,9,8.995,9,8.995L7,8.981v2.006l2,0.008v6l2.013,0v-6l2.374,0L13.7,8.979H11.012s0-2.285,0-2.509a0.561,0.561,0,0,1,.67-0.486C12.122,5.98,12.988,5.981,12.988,5.981Z"/>
</svg>
