<svg xmlns="http://www.w3.org/2000/svg" width="20" height="20" viewBox="0 0 20 20">
  <defs>
    <style>
      .cls-1 {
        fill: #222;
        fill-rule: evenodd;
      }
    </style>
  </defs>
  <path class="cls-1" d="M13.274,14.487a8.2,8.2,0,0,1-.7.563C9.886,17.3,6.693,17.678,5.181,15.9a4.076,4.076,0,0,1-.639-3.585A8.8,8.8,0,0,1,6.127,8.942L5.732,8.378a9.868,9.868,0,0,0-2.356,3.913c-0.03,0-.352,0-0.382.006a9.675,9.675,0,0,1,2.3-4.416L3.844,5.9C3.428,5.339,3.857,4.314,4.8,3.608s2.047-.829,2.462-0.272l1.352,1.81c2.839-1.777,6.1-1.576,7.579.161C18.018,7.457,16.577,11.371,13.274,14.487ZM8.695,10.075l0.391-.262L6.3,6.018l-0.562.433ZM6.88,3.8a3.591,3.591,0,0,0-1.306.525A5.576,5.576,0,0,0,4.383,5.576L4.913,6.34A6.127,6.127,0,0,1,6.028,5.1a4.14,4.14,0,0,1,1.286-.655Zm0.79,1.28L7.1,5.5,9.963,9.2l0.4-.252ZM11.4,8.872l0.532,4.182,0.228-.444c0.04-.037.19-0.156,0.191-0.156,2.231-2.04,2.576-4.573,1.89-5.25-0.959-1.13-2.556-1.334-4.482-.578Zm4.285-2.751c-1.351-1.59-4.1-1.987-6.69-.534l0.4,0.6c4.382-2.026,6.209,1.171,5.521.361,1.289,1.518.15,3.8-2.256,6.109-0.041.035-.083,0.068-0.124,0.1h0l-0.571.448-0.037-.058-1.059-.457a0.486,0.486,0,0,1-.088-0.038l-2.8-1.206L6.516,9.478a7.429,7.429,0,0,0-1.469,3.093,3.21,3.21,0,0,0,.832,2.776c1.407,1.66,3.931,1.223,6.372-.906a11.126,11.126,0,0,0,2.709-3.156l0.008,0C16.217,8.99,16.892,7.542,15.685,6.121Z"/>
</svg>
