<svg xmlns="http://www.w3.org/2000/svg" width="20" height="20" viewBox="0 0 20 20">
  <defs>
    <style>
      .cls-1 {
        fill: #222;
        fill-rule: evenodd;
      }
    </style>
  </defs>
  <path class="cls-1" d="M12.753,10.434a2.386,2.386,0,0,0-2.429-2.407H10.275A2.375,2.375,0,0,0,7.964,10.64a2.319,2.319,0,0,0,2.305,2.537,2.47,2.47,0,0,0,2.487-2.439Zm-2.47-3.752A3.649,3.649,0,0,1,12.9,7.861v0a0.555,0.555,0,0,1,.531-0.606H13.5a0.607,0.607,0,0,1,.581.628l0,5.367a0.334,0.334,0,0,0,.558.308c0.824-.886,1.81-4.552-0.512-6.677a5.368,5.368,0,0,0-6.612-.543,5.363,5.363,0,0,0-1.672,6.268A4.963,4.963,0,0,0,12.036,15.3c0.958-.4,1.4.95,0.406,1.393A6.49,6.49,0,0,1,4.8,13.749,6.581,6.581,0,0,1,15.394,6.092c2.226,2.432,2.1,6.987-.075,8.758A1.509,1.509,0,0,1,12.883,13.7l-0.01-.383a3.574,3.574,0,0,1-2.59,1.126,3.885,3.885,0,0,1,0-7.759h0"/>
</svg>
