<svg xmlns="http://www.w3.org/2000/svg" width="20" height="20" viewBox="0 0 20 20">
  <defs>
    <style>
      .cls-1 {
        fill: #222;
        fill-rule: evenodd;
      }
    </style>
  </defs>
  <path class="cls-1" d="M10.994,6.771v3.257a0.521,0.521,0,0,0,.426.351c0.3,0,.978-1.8,1.279-2.406a1.931,1.931,0,0,1,.738-0.826A0.61,0.61,0,0,1,13.8,6.992h2.878a0.464,0.464,0,0,1,.3.727,29.378,29.378,0,0,1-2.255,2.736,1.315,1.315,0,0,0-.238.55,1.2,1.2,0,0,0,.313.627c0.2,0.226,1.816,2,1.966,2.155a1.194,1.194,0,0,1,.276.576,0.765,0.765,0,0,1-.8.614c-0.627,0-2.167,0-2.342,0a2.788,2.788,0,0,1-.952-0.565c-0.226-.2-1.153-1.152-1.278-1.277a2.457,2.457,0,0,0,.024-0.363,0.826,0.826,0,0,0-.7.8,4.083,4.083,0,0,1-.238,1.139,1.024,1.024,0,0,1-.737.275A5,5,0,0,1,7.1,14.262,14.339,14.339,0,0,1,2.9,9.251C2.127,7.708,1.953,7.468,2,7.293s0.05-.3.226-0.3,2.39,0,2.606,0a0.851,0.851,0,0,1,.351.326c0.075,0.1.647,1.056,0.822,1.356S7.046,10.38,7.513,10.38a0.6,0.6,0,0,0,.474-0.7c0-.4,0-1.979,0-2.18a1.94,1.94,0,0,0-.978-1A1.261,1.261,0,0,1,7.937,6c0.6-.025,2.1-0.025,2.43.024A0.779,0.779,0,0,1,10.994,6.771Z"/>
</svg>
